<svg xmlns="http://www.w3.org/2000/svg" version="1.1" xmlns:xlink="http://www.w3.org/1999/xlink" xmlns:svgjs="http://svgjs.dev/svgjs" width="2000" height="186" viewBox="0 0 2000 186"><g transform="matrix(1,0,0,1,-1.2121203899837383,1.0461502737551598)"><svg viewBox="0 0 396 37" data-background-color="#4d7e3e" preserveAspectRatio="xMidYMid meet" height="186" width="2000" xmlns="http://www.w3.org/2000/svg" xmlns:xlink="http://www.w3.org/1999/xlink"><g id="tight-bounds" transform="matrix(1,0,0,1,0.23999983721677154,-0.20810516198355344)"><svg viewBox="0 0 395.52 37.4162103239671" height="37.4162103239671" width="395.52"><g><svg viewBox="0 0 461.80326546670597 43.686610307941656" height="37.4162103239671" width="395.52"><g transform="matrix(1,0,0,1,0,6.03772978930308)"><svg viewBox="0 0 395.52 31.611150729335495" height="31.611150729335495" width="395.52"><g id="textblocktransform"><svg viewBox="0 0 395.52 31.611150729335495" height="31.611150729335495" width="395.52" id="textblock"><g><svg viewBox="0 0 395.52 31.611150729335495" height="31.611150729335495" width="395.52"><g transform="matrix(1,0,0,1,0,0)"><svg width="395.52" viewBox="2.8499999046325684 -37.75 493.57000732421875 39.45000076293945" height="31.611150729335495" data-palette-color="#c9efc7"><path d="M2.85-18.1L2.85-18.1Q2.85-21.85 4.28-25.2 5.7-28.55 8.25-31.15 10.8-33.75 14.15-35.23 17.5-36.7 21.35-36.7L21.35-36.7Q25.15-36.7 28.5-35.23 31.85-33.75 34.45-31.15 37.05-28.55 38.5-25.2 39.95-21.85 39.95-18.1L39.95-18.1Q39.95-14.25 38.5-10.9 37.05-7.55 34.48-5 31.9-2.45 28.53-1.03 25.15 0.4 21.35 0.4L21.35 0.4Q17.5 0.4 14.15-1 10.8-2.4 8.25-4.93 5.7-7.45 4.28-10.83 2.85-14.2 2.85-18.1ZM8.35-18.1L8.35-18.1Q8.35-15.3 9.38-12.88 10.4-10.45 12.2-8.63 14-6.8 16.38-5.78 18.75-4.75 21.5-4.75L21.5-4.75Q24.2-4.75 26.55-5.78 28.9-6.8 30.68-8.63 32.45-10.45 33.45-12.88 34.45-15.3 34.45-18.1L34.45-18.1Q34.45-20.9 33.43-23.33 32.4-25.75 30.63-27.6 28.85-29.45 26.48-30.5 24.1-31.55 21.4-31.55L21.4-31.55Q18.6-31.55 16.25-30.5 13.9-29.45 12.1-27.6 10.3-25.75 9.33-23.3 8.35-20.85 8.35-18.1ZM47.9 0L47.9-36.3 53.25-36.3 53.25-5.15 71.4-5.15 71.4 0 47.9 0ZM79.2 0L79.2-36.3 84.55-36.3 84.55 0 79.2 0ZM91.59-36.3L97.94-36.3 109.64-7.1 106.59-7.65 117.54-36.3 123.84-36.3 107.69 1.7 91.59-36.3ZM130.84 0L130.84-36.3 154.69-36.3 154.69-31.15 136.19-31.15 136.19-20.8 152.64-20.8 152.64-15.65 136.19-15.65 136.19-5.15 155.39-5.15 155.39 0 130.84 0ZM163.59-36.3L173.54-36.3Q176.39-36.3 178.81-35.52 181.24-34.75 182.96-33.3 184.69-31.85 185.66-29.73 186.64-27.6 186.64-24.8L186.64-24.8Q186.64-22.65 185.99-20.55 185.34-18.45 183.89-16.75 182.44-15.05 180.09-14.03 177.74-13 174.24-13L174.24-13 168.94-13 168.94 0 163.59 0 163.59-36.3ZM168.94-18.1L174.14-18.1Q176.19-18.1 177.56-18.75 178.94-19.4 179.71-20.38 180.49-21.35 180.81-22.48 181.14-23.6 181.14-24.65L181.14-24.65Q181.14-25.65 180.81-26.75 180.49-27.85 179.71-28.85 178.94-29.85 177.64-30.5 176.34-31.15 174.44-31.15L174.44-31.15 168.94-31.15 168.94-18.1ZM173.94-14.85L180.29-15 189.69 0 183.49 0 173.94-14.85ZM237.23-7.55L239.48-2.75Q238.68-2.2 237.11-1.43 235.53-0.65 233.41-0.1 231.28 0.45 228.73 0.4L228.73 0.4Q224.48 0.35 221.11-1.1 217.73-2.55 215.38-5.08 213.03-7.6 211.76-10.88 210.48-14.15 210.48-17.85L210.48-17.85Q210.48-21.95 211.78-25.38 213.08-28.8 215.51-31.35 217.93-33.9 221.21-35.3 224.48-36.7 228.38-36.7L228.38-36.7Q231.73-36.7 234.43-35.8 237.13-34.9 238.98-33.7L238.98-33.7 236.88-28.7Q235.43-29.7 233.31-30.63 231.18-31.55 228.58-31.55L228.58-31.55Q226.03-31.55 223.76-30.53 221.48-29.5 219.76-27.68 218.03-25.85 217.03-23.43 216.03-21 216.03-18.15L216.03-18.15Q216.03-15.25 216.93-12.8 217.83-10.35 219.51-8.55 221.18-6.75 223.53-5.75 225.88-4.75 228.83-4.75L228.83-4.75Q231.63-4.75 233.76-5.6 235.88-6.45 237.23-7.55L237.23-7.55ZM247.48-36.3L257.43-36.3Q260.28-36.3 262.71-35.52 265.13-34.75 266.86-33.3 268.58-31.85 269.56-29.73 270.53-27.6 270.53-24.8L270.53-24.8Q270.53-22.65 269.88-20.55 269.23-18.45 267.78-16.75 266.33-15.05 263.98-14.03 261.63-13 258.13-13L258.13-13 252.83-13 252.83 0 247.48 0 247.48-36.3ZM252.83-18.1L258.03-18.1Q260.08-18.1 261.46-18.75 262.83-19.4 263.61-20.38 264.38-21.35 264.71-22.48 265.03-23.6 265.03-24.65L265.03-24.65Q265.03-25.65 264.71-26.75 264.38-27.85 263.61-28.85 262.83-29.85 261.53-30.5 260.23-31.15 258.33-31.15L258.33-31.15 252.83-31.15 252.83-18.1ZM257.83-14.85L264.18-15 273.58 0 267.38 0 257.83-14.85ZM282.28 0L277.03 0 292.98-37.75 293.28-37.75 309.23 0 303.13 0 291.53-29.4 295.38-31.95 282.28 0ZM285.13-9L286.73-13.6 299.63-13.6 301.48-9 285.13-9ZM322.27 1.7L307.82-36.1 314.02-36.1 323.43-9.4 322.52-9.75 329.63-28 332.07-20.75 322.27 1.7ZM340.27 1.6L325.43-36.1 330.73-36.1 341.02-9.85 339.98-10.05 348.77-36.1 354.48-36.1 340.27 1.6ZM361.52 0L361.52-36.3 383.27-36.3 383.27-31.15 366.87-31.15 366.87-20.25 381.22-20.25 381.22-15.15 366.87-15.15 366.87 0 361.52 0ZM388.22-18.1L388.22-18.1Q388.22-21.85 389.64-25.2 391.07-28.55 393.62-31.15 396.17-33.75 399.52-35.23 402.87-36.7 406.72-36.7L406.72-36.7Q410.52-36.7 413.87-35.23 417.22-33.75 419.82-31.15 422.42-28.55 423.87-25.2 425.32-21.85 425.32-18.1L425.32-18.1Q425.32-14.25 423.87-10.9 422.42-7.55 419.85-5 417.27-2.45 413.89-1.03 410.52 0.4 406.72 0.4L406.72 0.4Q402.87 0.4 399.52-1 396.17-2.4 393.62-4.93 391.07-7.45 389.64-10.83 388.22-14.2 388.22-18.1ZM393.72-18.1L393.72-18.1Q393.72-15.3 394.75-12.88 395.77-10.45 397.57-8.63 399.37-6.8 401.75-5.78 404.12-4.75 406.87-4.75L406.87-4.75Q409.57-4.75 411.92-5.78 414.27-6.8 416.05-8.63 417.82-10.45 418.82-12.88 419.82-15.3 419.82-18.1L419.82-18.1Q419.82-20.9 418.8-23.33 417.77-25.75 416-27.6 414.22-29.45 411.85-30.5 409.47-31.55 406.77-31.55L406.77-31.55Q403.97-31.55 401.62-30.5 399.27-29.45 397.47-27.6 395.67-25.75 394.69-23.3 393.72-20.85 393.72-18.1ZM433.27-36.3L443.22-36.3Q446.07-36.3 448.49-35.52 450.92-34.75 452.64-33.3 454.37-31.85 455.34-29.73 456.32-27.6 456.32-24.8L456.32-24.8Q456.32-22.65 455.67-20.55 455.02-18.45 453.57-16.75 452.12-15.05 449.77-14.03 447.42-13 443.92-13L443.92-13 438.62-13 438.62 0 433.27 0 433.27-36.3ZM438.62-18.1L443.82-18.1Q445.87-18.1 447.24-18.75 448.62-19.4 449.39-20.38 450.17-21.35 450.49-22.48 450.82-23.6 450.82-24.65L450.82-24.65Q450.82-25.65 450.49-26.75 450.17-27.85 449.39-28.85 448.62-29.85 447.32-30.5 446.02-31.15 444.12-31.15L444.12-31.15 438.62-31.15 438.62-18.1ZM443.62-14.85L449.97-15 459.37 0 453.17 0 443.62-14.85ZM478.37 0L466.52 0 466.52-36.3 476.62-36.3Q482.02-36.3 485.81-34.65 489.62-33 491.94-30.3 494.27-27.6 495.34-24.3 496.42-21 496.42-17.65L496.42-17.65Q496.42-13.6 494.97-10.35 493.52-7.1 491.02-4.78 488.52-2.45 485.27-1.23 482.02 0 478.37 0L478.37 0ZM471.87-31.15L471.87-5.15 477.37-5.15Q480.31-5.15 482.79-6 485.27-6.85 487.09-8.5 488.92-10.15 489.92-12.55 490.92-14.95 490.92-18.05L490.92-18.05Q490.92-21.4 489.79-23.88 488.67-26.35 486.81-27.98 484.97-29.6 482.69-30.38 480.42-31.15 478.06-31.15L478.06-31.15 471.87-31.15Z" opacity="1" transform="matrix(1,0,0,1,0,0)" fill="#FFFFFF" class="wordmark-text-0" data-fill-palette-color="primary" id="text-0"></path></svg></g></svg></g></svg></g></svg></g><g transform="matrix(1,0,0,1,402.9826340195786,0)"><svg viewBox="0 0 58.82063144712741 43.686610307941656" height="43.686610307941656" width="58.82063144712741"><g><svg xmlns="http://www.w3.org/2000/svg" xmlns:xlink="http://www.w3.org/1999/xlink" version="1.1" x="0" y="0" viewBox="7.5 18.434999465942383 85.0009994506836 63.131004333496094" enable-background="new 0 0 100 100" xml:space="preserve" height="43.686610307941656" width="58.82063144712741" class="icon-icon-0" data-fill-palette-color="accent" id="icon-0"><g fill="#31c48d" data-fill-palette-color="accent"><path d="M89.405 18.435H10.595c-1.706 0-3.095 1.389-3.095 3.095v56.941c0 1.706 1.389 3.095 3.095 3.095h78.811c1.707 0 3.095-1.389 3.095-3.095V77.14 32.027 21.529C92.5 19.823 91.112 18.435 89.405 18.435zM10.595 19.673h78.811c1.023 0 1.857 0.833 1.857 1.856v9.075c-0.068-0.01-0.136-0.021-0.207-0.021H8.951c-0.073 0-0.143 0.011-0.213 0.021v-9.076C8.738 20.506 9.571 19.673 10.595 19.673zM91.263 77.14c0 0.114-0.093 0.206-0.207 0.206H8.951c-0.113 0-0.206-0.092-0.206-0.206V32.027c0-0.113 0.093-0.206 0.206-0.206h82.104c0.114 0 0.207 0.093 0.207 0.206V77.14zM89.405 80.327H10.595c-0.992 0-1.798-0.784-1.848-1.764 0.067 0.01 0.135 0.021 0.204 0.021h82.104c0.068 0 0.133-0.011 0.197-0.02C91.202 79.544 90.396 80.327 89.405 80.327z" fill="#FFFFFF" data-fill-palette-color="accent"></path><path d="M28.178 27.787c1.45 0 2.63-1.18 2.63-2.63 0-1.451-1.18-2.631-2.63-2.631s-2.631 1.18-2.631 2.631C25.547 26.607 26.728 27.787 28.178 27.787zM28.178 23.765c0.768 0 1.393 0.624 1.393 1.393 0 0.768-0.625 1.393-1.393 1.393-0.769 0-1.393-0.625-1.393-1.393C26.785 24.389 27.409 23.765 28.178 23.765z" fill="#FFFFFF" data-fill-palette-color="accent"></path><path d="M21.458 27.787c1.451 0 2.631-1.18 2.631-2.63 0-1.451-1.18-2.631-2.631-2.631-1.45 0-2.63 1.18-2.63 2.631C18.828 26.607 20.008 27.787 21.458 27.787zM21.458 23.765c0.769 0 1.393 0.624 1.393 1.393 0 0.768-0.624 1.393-1.393 1.393-0.768 0-1.393-0.625-1.393-1.393C20.065 24.389 20.69 23.765 21.458 23.765z" fill="#FFFFFF" data-fill-palette-color="accent"></path><path d="M14.738 27.787c1.451 0 2.631-1.18 2.631-2.63 0-1.451-1.18-2.631-2.631-2.631-1.45 0-2.63 1.18-2.63 2.631C12.108 26.607 13.288 27.787 14.738 27.787zM14.738 23.765c0.769 0 1.393 0.624 1.393 1.393 0 0.768-0.624 1.393-1.393 1.393-0.768 0-1.393-0.625-1.393-1.393C13.346 24.389 13.971 23.765 14.738 23.765z" fill="#FFFFFF" data-fill-palette-color="accent"></path></g><path d="M26.598 65.915c-0.624 0-1.395-0.429-2.289-1.276-1.605-1.519-2.16-2.371-1.2-3.405l8.79-8.811-8.774-8.782c-0.676-0.676-0.57-1.195-0.401-1.57 0.242-0.544 0.814-1.117 1.479-1.781 0.829-0.829 1.542-1.542 2.241-1.542 0.342 0 0.679 0.172 1.033 0.526l11.769 11.755c0.311 0.254 0.521 0.659 0.564 1.134 0.048 0.537-0.134 1.152-0.452 1.533L27.53 65.514C27.243 65.787 26.941 65.915 26.598 65.915zM23.846 42.57c-0.009 0 0.027 0.068 0.154 0.194l9.211 9.221c0.241 0.242 0.241 0.633 0 0.875L24 62.093c-0.093 0.1-0.125 0.147-0.133 0.166 0.012 0.047 0.125 0.377 1.292 1.48 0.979 0.927 1.42 0.938 1.438 0.938v0.619l0.01-0.62c-0.001 0.001-0.001 0.001-0.001 0.001-0.003 0 0.02-0.012 0.061-0.05l11.777-11.767c0.061-0.077 0.151-0.357 0.131-0.589-0.013-0.145-0.063-0.246-0.162-0.328L26.601 40.148c-0.144-0.143-0.215-0.171-0.215-0.171-0.182 0.06-0.886 0.764-1.307 1.184-0.531 0.532-1.077 1.078-1.227 1.413C23.85 42.571 23.848 42.57 23.846 42.57z" fill="#FFFFFF" data-fill-palette-color="accent"></path><path d="M55.834 71.436H40.498c-1.594 0-1.92-1.234-1.92-3.088s0.326-3.088 1.92-3.088h15.336c1.503 0 1.787 1.085 1.787 3.088C57.621 70.396 57.346 71.436 55.834 71.436zM40.498 66.497c-0.366 0-0.683 0-0.683 1.851s0.316 1.851 0.683 1.851h15.336c0.354 0 0.55 0 0.55-1.851s-0.219-1.851-0.55-1.851H40.498z" fill="#FFFFFF" data-fill-palette-color="accent"></path></svg></g></svg></g></svg></g><defs></defs></svg><rect width="395.52" height="37.4162103239671" fill="none" stroke="none" visibility="hidden"></rect></g></svg></g></svg>